<svg id="svg" xmlns="http://www.w3.org/2000/svg" xmlns:xlink="http://www.w3.org/1999/xlink" width="400" height="400" viewBox="0, 0, 400,400"><g id="svgg"><path id="path0" d="M20.313 196.777 L 20.313 275.000 24.902 275.000 L 29.492 275.000 29.492 196.777 L 29.492 118.555 24.902 118.555 L 20.313 118.555 20.313 196.777 M37.500 122.710 L 37.500 126.913 41.455 127.007 C 49.862 127.205,53.009 129.655,54.192 136.922 C 54.854 140.985,55.089 227.704,54.499 250.195 C 54.157 263.238,51.708 266.197,40.967 266.547 L 37.500 266.660 37.500 270.860 L 37.500 275.060 41.455 274.943 C 56.752 274.488,62.565 269.091,63.470 254.500 C 64.174 243.151,64.176 149.882,63.473 138.865 C 62.542 124.284,56.940 118.942,42.236 118.613 L 37.500 118.507 37.500 122.710 M79.883 125.684 L 79.883 132.813 89.160 132.813 L 98.438 132.813 98.438 125.684 L 98.438 118.555 89.160 118.555 L 79.883 118.555 79.883 125.684 M371.094 196.777 L 371.094 275.000 375.684 275.000 L 380.273 275.000 380.273 196.777 L 380.273 118.555 375.684 118.555 L 371.094 118.555 371.094 196.777 M349.902 156.574 C 342.069 157.820,338.178 162.254,336.808 171.496 C 335.798 178.309,335.805 254.542,336.817 261.087 C 338.332 270.888,342.374 275.172,350.878 275.990 C 355.194 276.404,358.907 275.698,361.963 273.882 L 363.086 273.214 363.086 270.126 L 363.086 267.039 361.475 267.593 C 355.792 269.548,349.968 268.525,347.718 265.178 C 345.236 261.485,345.232 261.408,345.232 216.309 C 345.232 172.841,345.259 172.167,347.101 168.423 C 349.173 164.215,355.173 162.709,361.475 164.817 L 363.086 165.356 363.086 162.192 L 363.086 159.028 361.567 158.238 C 358.774 156.785,353.396 156.018,349.902 156.574 M126.608 156.933 C 115.582 158.932,112.695 164.992,112.695 186.146 C 112.695 208.488,115.702 213.497,132.744 219.538 C 144.663 223.763,145.623 225.717,145.591 245.703 C 145.564 263.310,144.457 266.574,138.037 267.980 L 136.914 268.226 136.914 272.104 L 136.914 275.981 137.744 275.866 C 149.210 274.276,153.263 269.190,154.081 255.364 C 155.914 224.394,152.884 217.443,134.928 211.418 C 124.479 207.912,123.323 206.624,122.169 197.189 C 121.316 190.221,121.429 176.098,122.375 171.469 C 123.239 167.234,124.874 165.409,128.662 164.452 L 129.492 164.243 129.492 160.442 L 129.492 156.641 128.760 156.658 C 128.357 156.668,127.389 156.792,126.608 156.933 M137.500 160.435 L 137.500 164.230 138.617 164.555 C 144.406 166.238,145.190 168.848,145.084 186.087 L 145.020 196.485 149.248 196.484 L 153.476 196.484 153.613 194.092 C 154.175 184.248,153.508 171.222,152.234 167.185 C 150.206 160.756,144.675 156.641,138.064 156.641 L 137.500 156.641 137.500 160.435 M186.054 156.954 C 176.463 158.686,172.271 164.394,171.467 176.813 C 170.845 186.421,171.097 254.274,171.774 259.284 C 173.197 269.830,178.027 274.690,188.232 275.845 L 189.063 275.939 189.063 272.068 L 189.063 268.196 188.086 267.987 C 183.620 267.029,181.314 263.954,180.677 258.105 C 179.797 250.016,180.006 177.053,180.923 172.461 C 181.907 167.533,183.924 165.386,188.525 164.369 L 189.063 164.250 189.063 160.445 L 189.063 156.641 188.330 156.658 C 187.927 156.668,186.903 156.801,186.054 156.954 M197.070 160.416 L 197.070 164.243 197.900 164.452 C 201.989 165.485,203.967 167.466,205.021 171.582 C 205.339 172.822,205.371 174.042,205.371 184.717 L 205.371 196.484 209.786 196.484 L 214.201 196.484 214.326 195.166 C 214.527 193.040,214.468 175.652,214.254 173.730 C 213.060 163.032,208.089 157.676,198.473 156.728 L 197.070 156.590 197.070 160.416 M245.801 157.029 C 236.383 158.932,232.402 164.468,231.615 176.758 C 231.396 180.162,231.509 194.608,231.764 195.882 L 231.885 196.484 236.157 196.484 L 240.430 196.484 240.431 186.475 C 240.434 169.604,241.449 166.461,247.486 164.627 L 248.828 164.220 248.828 160.430 L 248.828 156.641 248.193 156.657 C 247.844 156.666,246.768 156.833,245.801 157.029 M256.881 160.562 L 256.934 164.483 258.008 164.858 C 260.317 165.665,262.015 167.340,262.895 169.680 C 264.013 172.655,263.939 169.020,264.008 224.268 L 264.071 275.000 268.559 275.000 L 273.047 275.000 273.047 225.145 C 273.047 167.199,273.159 170.102,270.722 164.948 C 268.429 160.101,262.879 156.641,257.396 156.641 L 256.828 156.641 256.881 160.562 M316.309 157.714 C 314.904 157.979,313.786 158.336,312.594 158.902 L 311.914 159.224 311.914 162.936 L 311.914 166.647 312.354 166.504 C 315.552 165.465,316.189 165.377,321.240 165.283 L 326.172 165.191 326.172 161.307 L 326.172 157.422 321.924 157.440 C 319.309 157.450,317.150 157.556,316.309 157.714 M85.156 216.309 L 85.156 275.000 89.746 275.000 L 94.336 275.000 94.336 216.309 L 94.336 157.617 89.746 157.617 L 85.156 157.617 85.156 216.309 M294.922 216.309 L 294.922 275.000 299.414 275.000 L 303.906 275.000 303.906 216.309 L 303.906 157.617 299.414 157.617 L 294.922 157.617 294.922 216.309 M252.637 210.318 C 242.306 216.636,237.766 220.640,234.761 226.082 C 228.163 238.036,228.238 261.877,234.902 270.652 C 238.958 275.993,248.368 277.819,254.697 274.493 L 256.055 273.780 256.055 270.581 C 256.055 268.822,256.013 267.383,255.961 267.383 C 255.910 267.383,255.185 267.615,254.350 267.898 C 247.623 270.181,241.616 266.691,239.851 259.473 C 238.911 255.629,238.784 244.677,239.617 239.355 C 241.411 227.908,243.497 224.707,254.053 217.206 L 256.055 215.783 256.055 212.091 C 256.055 210.060,255.989 208.400,255.908 208.403 C 255.828 208.405,254.355 209.267,252.637 210.318 M112.792 238.525 C 112.543 243.205,112.796 258.427,113.160 260.642 C 114.701 270.008,118.572 274.355,126.465 275.583 C 127.217 275.700,128.074 275.834,128.369 275.881 L 128.906 275.967 128.906 272.110 L 128.906 268.254 127.474 267.809 C 121.781 266.042,121.024 263.443,121.130 246.045 L 121.191 235.937 117.061 235.937 L 112.931 235.938 112.792 238.525 M205.371 247.607 C 205.371 260.664,205.348 260.932,203.981 263.664 C 202.910 265.806,200.818 267.334,198.096 267.965 L 197.070 268.203 197.070 272.092 L 197.070 275.981 197.900 275.869 C 207.868 274.516,212.345 270.192,213.967 260.352 C 214.580 256.637,214.793 243.031,214.328 237.354 L 214.212 235.938 209.792 235.937 L 205.371 235.937 205.371 247.607 " stroke="none" fill="#000000" fill-rule="evenodd"></path></g></svg>